<svg width="2000" height="2000" viewBox="0 0 2000 2000" fill="none" xmlns="http://www.w3.org/2000/svg">
<rect width="2000" height="2000" fill="#FF5500"/>
<g clip-path="url(#clip0_705_12674)">
<path d="M1337 451H663C572.978 451 500 523.978 500 614C500 704.022 572.978 777 663 777H1337C1427.02 777 1500 704.022 1500 614C1500 523.978 1427.02 451 1337 451Z" fill="white"/>
<path d="M826 1386C826 1295.98 753.022 1223 663 1223C572.978 1223 500 1295.98 500 1386C500 1476.02 572.978 1549 663 1549C753.022 1549 826 1476.02 826 1386Z" fill="white"/>
<path d="M934.93 837H663C572.98 837 500 909.98 500 1000C500 1090.02 572.98 1163 663 1163C713.3 1163 760.78 1139.78 791.66 1100.08L958.62 885.42C973.95 865.71 959.9 837 934.94 837H934.93Z" fill="white"/>
<path d="M1152 837C1101.7 837 1054.22 860.22 1023.34 899.92L856.38 1114.58C841.05 1134.29 855.1 1163 880.06 1163H1151.99C1242.01 1163 1314.99 1090.02 1314.99 1000C1314.99 909.98 1242.01 837 1151.99 837H1152Z" fill="white"/>
</g>
<defs>
<clipPath id="clip0_705_12674">
<rect width="1000" height="1098" fill="white" transform="translate(500 451)"/>
</clipPath>
</defs>
</svg>
