<svg width="7933" height="1098" viewBox="0 0 7933 1098" fill="none" xmlns="http://www.w3.org/2000/svg">
<g clip-path="url(#clip0_744_10817)">
<path d="M837 0H163C72.98 0 0 72.98 0 163C0 253.02 72.98 326 163 326H837C927.02 326 1000 253.02 1000 163C1000 72.98 927.02 0 837 0Z" fill="#FF5500"/>
<path d="M326 935C326 844.98 253.02 772 163 772C72.98 772 0 844.98 0 935C0 1025.02 72.98 1098 163 1098C253.02 1098 326 1025.02 326 935Z" fill="#FF5500"/>
<path d="M434.93 386H163C72.98 386 0 458.98 0 549C0 639.02 72.98 712 163 712C213.3 712 260.78 688.78 291.66 649.08L458.62 434.42C473.95 414.71 459.9 386 434.94 386H434.93Z" fill="#FF5500"/>
<path d="M652 386C601.7 386 554.22 409.22 523.34 448.92L356.38 663.58C341.05 683.29 355.1 712 380.06 712H651.99C742.01 712 814.99 639.02 814.99 549C814.99 458.98 742.01 386 651.99 386H652Z" fill="#FF5500"/>
<path d="M1879.65 507H2282.85V663H1879.65V507ZM1894.05 969H1699.65V129H2334.45V285H1894.05V969ZM2452.85 969V323.4H2640.05V969H2452.85ZM2546.45 233.4C2512.05 233.4 2484.05 223.4 2462.45 203.4C2440.85 183.4 2430.05 158.6 2430.05 129C2430.05 99.4001 2440.85 74.6001 2462.45 54.6001C2484.05 34.6001 2512.05 24.6001 2546.45 24.6001C2580.85 24.6001 2608.85 34.2001 2630.45 53.4001C2652.05 71.8001 2662.85 95.8001 2662.85 125.4C2662.85 156.6 2652.05 182.6 2630.45 203.4C2609.65 223.4 2581.65 233.4 2546.45 233.4ZM2813.79 969V78.6001H3000.99V969H2813.79ZM3570.73 969V843L3558.73 815.4V589.8C3558.73 549.8 3546.33 518.6 3521.53 496.2C3497.53 473.8 3460.33 462.6 3409.93 462.6C3375.53 462.6 3341.53 468.2 3307.93 479.4C3275.13 489.8 3247.13 504.2 3223.93 522.6L3156.73 391.8C3191.93 367 3234.33 347.8 3283.93 334.2C3333.53 320.6 3383.93 313.8 3435.13 313.8C3533.53 313.8 3609.93 337 3664.33 383.4C3718.73 429.8 3745.93 502.2 3745.93 600.6V969H3570.73ZM3373.93 978.6C3323.53 978.6 3280.33 970.2 3244.33 953.4C3208.33 935.8 3180.73 912.2 3161.53 882.6C3142.33 853 3132.73 819.8 3132.73 783C3132.73 746.2 3141.93 711 3160.33 682.2C3179.53 653.4 3209.53 631 3250.33 615C3291.13 598.2 3344.33 589.8 3409.93 589.8H3581.53V699H3430.33C3386.33 699 3355.93 706.2 3339.13 720.6C3323.13 735 3315.13 753 3315.13 774.6C3315.13 798.6 3324.33 817.8 3342.73 832.2C3361.93 845.8 3387.93 852.6 3420.73 852.6C3453.53 852.6 3479.93 845.4 3504.73 831C3529.53 815.8 3547.53 793.8 3558.73 765L3587.53 851.4C3573.93 893 3549.13 924.6 3513.13 946.2C3477.13 967.8 3430.73 978.6 3373.93 978.6ZM4742.15 313.8C4793.35 313.8 4838.55 324.2 4877.75 345C4917.75 365 4948.95 396.2 4971.35 438.6C4994.55 480.2 5006.15 533.8 5006.15 599.4V969H4818.95V628.2C4818.95 576.2 4808.15 537.8 4786.55 513C4764.95 488.2 4734.55 475.8 4695.35 475.8C4668.15 475.8 4643.75 482.2 4622.15 495C4600.55 507 4583.75 525.4 4571.75 550.2C4559.75 575 4553.75 606.6 4553.75 645V969H4366.55V628.2C4366.55 576.2 4355.75 537.8 4334.15 513C4313.35 488.2 4283.35 475.8 4244.15 475.8C4216.95 475.8 4192.55 482.2 4170.95 495C4149.35 507 4132.55 525.4 4120.55 550.2C4108.55 575 4102.55 606.6 4102.55 645V969H3915.35V323.4H4094.15V499.8L4060.55 448.2C4082.95 404.2 4114.55 371 4155.35 348.6C4196.95 325.4 4244.15 313.8 4296.95 313.8C4356.15 313.8 4407.75 329 4451.75 359.4C4496.55 389 4526.15 434.6 4540.55 496.2L4474.55 478.2C4496.15 427.8 4530.55 387.8 4577.75 358.2C4625.75 328.6 4680.55 313.8 4742.15 313.8ZM5499.03 978.6C5425.43 978.6 5360.63 964.2 5304.63 935.4C5249.43 906.6 5206.63 867.4 5176.23 817.8C5145.83 767.4 5130.63 710.2 5130.63 646.2C5130.63 582.2 5145.43 524.2 5175.03 474.6C5205.43 424.2 5246.63 385 5298.63 357C5350.63 328.2 5409.43 313.8 5475.03 313.8C5540.63 313.8 5595.03 327.4 5645.43 354.6C5696.63 381 5737.03 419.4 5766.63 469.8C5796.23 519.4 5811.03 579 5811.03 648.6C5811.03 655.8 5810.63 664.2 5809.83 673.8C5809.03 682.6 5808.23 691 5807.43 699H5283.03V589.8H5709.03L5637.03 622.2C5637.03 588.6 5630.23 559.4 5616.63 534.6C5603.03 509.8 5584.23 490.6 5560.23 477C5536.23 462.6 5508.23 455.4 5476.23 455.4C5444.23 455.4 5415.83 462.6 5391.03 477C5367.03 490.6 5348.23 510.2 5334.63 535.8C5321.03 560.6 5314.23 590.2 5314.23 624.6V653.4C5314.23 688.6 5321.83 719.8 5337.03 747C5353.03 773.4 5375.03 793.8 5403.03 808.2C5431.83 821.8 5465.43 828.6 5503.83 828.6C5538.23 828.6 5568.23 823.4 5593.83 813C5620.23 802.6 5644.23 787 5665.83 766.2L5765.43 874.2C5735.83 907.8 5698.63 933.8 5653.83 952.2C5609.03 969.8 5557.43 978.6 5499.03 978.6ZM6199.67 978.6C6123.67 978.6 6064.47 959.4 6022.07 921C5979.67 881.8 5958.47 823.8 5958.47 747V180.6H6145.67V744.6C6145.67 771.8 6152.87 793 6167.27 808.2C6181.67 822.6 6201.27 829.8 6226.07 829.8C6255.67 829.8 6280.87 821.8 6301.67 805.8L6352.07 937.8C6332.87 951.4 6309.67 961.8 6282.47 969C6256.07 975.4 6228.47 978.6 6199.67 978.6ZM5858.87 481.8V337.8H6306.47V481.8H5858.87ZM6457.15 969V323.4H6635.95V505.8L6610.75 453C6629.95 407.4 6660.75 373 6703.15 349.8C6745.55 325.8 6797.15 313.8 6857.95 313.8V486.6C6849.95 485.8 6842.75 485.4 6836.35 485.4C6829.95 484.6 6823.15 484.2 6815.95 484.2C6764.75 484.2 6723.15 499 6691.15 528.6C6659.95 557.4 6644.35 602.6 6644.35 664.2V969H6457.15ZM6970.43 969V323.4H7157.63V969H6970.43ZM7064.03 233.4C7029.63 233.4 7001.63 223.4 6980.03 203.4C6958.43 183.4 6947.63 158.6 6947.63 129C6947.63 99.4001 6958.43 74.6001 6980.03 54.6001C7001.63 34.6001 7029.63 24.6001 7064.03 24.6001C7098.43 24.6001 7126.43 34.2001 7148.03 53.4001C7169.63 71.8001 7180.43 95.8001 7180.43 125.4C7180.43 156.6 7169.63 182.6 7148.03 203.4C7127.23 223.4 7099.23 233.4 7064.03 233.4ZM7643.37 978.6C7573.77 978.6 7511.77 964.6 7457.37 936.6C7402.97 907.8 7360.17 868.2 7328.97 817.8C7298.57 767.4 7283.37 710.2 7283.37 646.2C7283.37 582.2 7298.57 524.2 7328.97 474.6C7360.17 424.2 7402.97 385 7457.37 357C7511.77 328.2 7573.77 313.8 7643.37 313.8C7712.97 313.8 7770.57 328.2 7820.97 357C7871.37 385 7908.57 425.4 7932.57 478.2L7787.37 556.2C7770.57 525.8 7749.37 503.4 7723.77 489C7698.97 474.6 7671.77 467.4 7642.17 467.4C7610.17 467.4 7581.37 474.6 7555.77 489C7530.17 503.4 7509.77 523.8 7494.57 550.2C7480.17 576.6 7472.97 608.6 7472.97 646.2C7472.97 683.8 7480.17 715.8 7494.57 742.2C7509.77 768.6 7530.17 789 7555.77 803.4C7581.37 817.8 7610.17 825 7642.17 825C7671.77 825 7698.97 818.2 7723.77 804.6C7749.37 790.2 7770.57 767.4 7787.37 736.2L7932.57 815.4C7908.57 867.4 7871.37 907.8 7820.97 936.6C7770.57 964.6 7711.37 978.6 7643.37 978.6Z" fill="white"/>
</g>
<defs>
<clipPath id="clip0_744_10817">
<rect width="7932.57" height="1098" fill="white"/>
</clipPath>
</defs>
</svg>
